<svg width="165" height="87" viewBox="0 0 165 87" fill="none" xmlns="http://www.w3.org/2000/svg">
<path d="M48.4633 73.7131C48.4633 73.9976 48.3719 74.2305 48.1893 74.4115C48.0067 74.5926 47.7719 74.6832 47.4849 74.6832H29.091C28.804 74.6832 28.5692 74.5926 28.3866 74.4115C28.2039 74.2305 28.1126 73.9976 28.1126 73.7131V69.2505C28.1126 68.966 28.2039 68.7331 28.3866 68.552C28.5692 68.3709 28.804 68.2804 29.091 68.2804H30.5782C29.7694 67.6078 29.091 66.7282 28.5431 65.6417C27.9952 64.5552 27.7212 63.2746 27.7212 61.8C27.7212 60.2996 28.0604 58.9802 28.7388 57.842C29.4171 56.6778 30.4216 55.7724 31.7522 55.1256C33.0568 54.453 34.6613 54.1167 36.5659 54.1167H47.4849C47.7719 54.1167 48.0067 54.2202 48.1893 54.4271C48.3719 54.6082 48.4633 54.8281 48.4633 55.0868V59.9762C48.4633 60.2349 48.3719 60.4677 48.1893 60.6747C48.0067 60.8558 47.7719 60.9463 47.4849 60.9463H36.8008C35.5745 60.9463 34.6353 61.2438 33.983 61.8388C33.3046 62.408 32.9655 63.2617 32.9655 64.3999C32.9655 65.4606 33.3046 66.3143 33.983 66.961C34.6353 67.5819 35.5745 67.8924 36.8008 67.8924H47.4849C47.7719 67.8924 48.0067 67.9958 48.1893 68.2028C48.3719 68.3839 48.4633 68.6038 48.4633 68.8625V73.7131Z" fill="url(#paint0_linear_1_1216)"/>
<path d="M48.4633 85.9911C48.4633 86.2757 48.3719 86.5085 48.1893 86.6896C48.0067 86.8707 47.7719 86.9612 47.4849 86.9612H29.091C28.804 86.9612 28.5692 86.8707 28.3866 86.6896C28.2039 86.5085 28.1126 86.2757 28.1126 85.9911V81.4121C28.1126 81.1534 28.2039 80.9335 28.3866 80.7525C28.5692 80.5455 28.804 80.442 29.091 80.442H47.4849C47.7719 80.442 48.0067 80.5455 48.1893 80.7525C48.3719 80.9335 48.4633 81.1534 48.4633 81.4121V85.9911ZM25.1774 86.0299C25.1774 86.3145 25.0861 86.5473 24.9035 86.7284C24.7208 86.9095 24.486 87 24.199 87H20.7159C20.4289 87 20.1941 86.9095 20.0115 86.7284C19.8028 86.5473 19.6984 86.3145 19.6984 86.0299V81.4121C19.6984 81.1276 19.8028 80.8947 20.0115 80.7136C20.1941 80.5067 20.4289 80.4032 20.7159 80.4032H24.199C24.486 80.4032 24.7208 80.5067 24.9035 80.7136C25.0861 80.8947 25.1774 81.1276 25.1774 81.4121V86.0299Z" fill="url(#paint1_linear_1_1216)"/>
<path d="M125.342 45.9188C124.69 45.9188 124.212 45.7679 123.907 45.4661C123.603 45.1643 123.364 44.7762 123.19 44.302L113.797 14.3577C113.71 14.1421 113.667 13.9266 113.667 13.711C113.667 13.3229 113.819 12.9996 114.123 12.7409C114.428 12.439 114.776 12.2881 115.167 12.2881H121.885C122.451 12.2881 122.885 12.439 123.19 12.7409C123.538 13.0427 123.755 13.3445 123.842 13.6463L129.321 32.1432L135.191 13.711C135.278 13.4092 135.474 13.1073 135.779 12.8055C136.126 12.4606 136.605 12.2881 137.214 12.2881H141.518C142.127 12.2881 142.584 12.4606 142.888 12.8055C143.236 13.1073 143.454 13.4092 143.54 13.711L149.411 32.1432L154.89 13.6463C154.977 13.3445 155.173 13.0427 155.477 12.7409C155.825 12.439 156.281 12.2881 156.847 12.2881H163.565C163.956 12.2881 164.283 12.439 164.543 12.7409C164.848 12.9996 165 13.3229 165 13.711C165 13.9266 164.978 14.1421 164.935 14.3577L155.542 44.302C155.412 44.7762 155.173 45.1643 154.825 45.4661C154.52 45.7679 154.042 45.9188 153.39 45.9188H147.519C146.911 45.9188 146.432 45.7679 146.084 45.4661C145.736 45.1643 145.497 44.7762 145.367 44.302L139.366 26.5812L133.365 44.302C133.235 44.7762 132.996 45.1643 132.648 45.4661C132.3 45.7679 131.821 45.9188 131.213 45.9188H125.342Z" fill="url(#paint2_linear_1_1216)"/>
<path d="M93.1383 46.5656C89.4856 46.5656 86.3982 45.9835 83.8761 44.8194C81.3975 43.6552 79.4842 41.9952 78.1362 39.8394C76.8317 37.6405 76.0924 35.032 75.9185 32.0138C75.875 31.1515 75.8533 30.1814 75.8533 29.1035C75.8533 27.9825 75.875 27.0123 75.9185 26.1931C76.0924 23.1319 76.8752 20.5233 78.2667 18.3675C79.6581 16.2117 81.5932 14.5517 84.0718 13.3876C86.5939 12.2235 89.6161 11.6414 93.1383 11.6414C96.704 11.6414 99.7262 12.2235 102.205 13.3876C104.727 14.5517 106.684 16.2117 108.075 18.3675C109.467 20.5233 110.249 23.1319 110.423 26.1931C110.467 27.0123 110.489 27.9825 110.489 29.1035C110.489 30.1814 110.467 31.1515 110.423 32.0138C110.249 35.032 109.488 37.6405 108.14 39.8394C106.836 41.9952 104.923 43.6552 102.4 44.8194C99.9218 45.9835 96.8344 46.5656 93.1383 46.5656ZM93.1383 38.6753C95.0951 38.6753 96.5083 38.0932 97.378 36.9291C98.2912 35.7649 98.813 34.0187 98.9434 31.6905C98.9869 31.0437 99.0087 30.1814 99.0087 29.1035C99.0087 28.0256 98.9869 27.1632 98.9434 26.5165C98.813 24.2313 98.2912 22.5067 97.378 21.3426C96.5083 20.1353 95.0951 19.5317 93.1383 19.5317C91.225 19.5317 89.8117 20.1353 88.8986 21.3426C87.9854 22.5067 87.4853 24.2313 87.3984 26.5165C87.3549 27.1632 87.3331 28.0256 87.3331 29.1035C87.3331 30.1814 87.3549 31.0437 87.3984 31.6905C87.4853 34.0187 87.9854 35.7649 88.8986 36.9291C89.8117 38.0932 91.225 38.6753 93.1383 38.6753Z" fill="url(#paint3_linear_1_1216)"/>
<path d="M49.3586 45.9188C48.8803 45.9188 48.4889 45.7679 48.1845 45.4661C47.8801 45.1643 47.7279 44.7762 47.7279 44.302V13.905C47.7279 13.4738 47.8801 13.1073 48.1845 12.8055C48.4889 12.4606 48.8803 12.2881 49.3586 12.2881H56.8596C57.338 12.2881 57.7293 12.4606 58.0337 12.8055C58.3381 13.1073 58.4903 13.4738 58.4903 13.905V16.492C59.6644 15.1554 61.0559 14.1206 62.6648 13.3876C64.3172 12.6546 66.1653 12.2881 68.209 12.2881H71.079C71.5138 12.2881 71.8835 12.439 72.1879 12.7409C72.5357 13.0427 72.7097 13.4307 72.7097 13.905V20.5665C72.7097 20.9976 72.5357 21.3857 72.1879 21.7306C71.8835 22.0324 71.5138 22.1833 71.079 22.1833H64.752C62.9692 22.1833 61.5777 22.6792 60.5775 23.6708C59.6209 24.6194 59.1426 25.9776 59.1426 27.7453V44.302C59.1426 44.7762 58.9686 45.1643 58.6207 45.4661C58.3164 45.7679 57.925 45.9188 57.4467 45.9188H49.3586Z" fill="url(#paint4_linear_1_1216)"/>
<path d="M20.3507 46.5656C16.2196 46.5656 12.6539 45.8973 9.65351 44.5607C6.69658 43.1809 4.39191 41.1976 2.73951 38.6106C1.13059 35.9805 0.239164 32.7899 0.0652264 29.0388C0.0217422 27.1848 0 25.223 0 23.1534C0 21.0407 0.0217422 19.0358 0.0652264 17.1387C0.239164 13.4738 1.15233 10.3695 2.80474 7.8256C4.45714 5.28174 6.78355 3.34151 9.78397 2.00491C12.7844 0.668303 16.3066 0 20.3507 0C23.612 0 26.5037 0.409605 29.0258 1.22881C31.5479 2.00491 33.6568 3.06125 35.3527 4.39786C37.0921 5.73446 38.3966 7.20042 39.2663 8.79572C40.1795 10.391 40.6578 11.9648 40.7013 13.5169C40.7448 13.905 40.6143 14.2284 40.3099 14.4871C40.049 14.7458 39.7229 14.8751 39.3316 14.8751H29.8085C29.3302 14.8751 28.9605 14.8104 28.6996 14.6811C28.4822 14.5086 28.2865 14.2715 28.1126 13.9697C27.8082 13.3229 27.3516 12.6546 26.7428 11.9648C26.1776 11.2318 25.3731 10.6066 24.3295 10.0892C23.3293 9.57181 22.0031 9.31311 20.3507 9.31311C17.872 9.31311 15.9153 9.95986 14.4803 11.2533C13.0888 12.5468 12.3278 14.6164 12.1973 17.4621C12.0669 21.1701 12.0669 24.9212 12.1973 28.7154C12.3278 31.7336 13.1323 33.9109 14.6107 35.2476C16.0892 36.5842 18.046 37.2525 20.4811 37.2525C22.1335 37.2525 23.5902 36.9722 24.8513 36.4117C26.1558 35.8512 27.1777 34.9889 27.9169 33.8247C28.6562 32.6175 29.0258 31.0868 29.0258 29.2328V28.004H22.8945C22.4162 28.004 22.0031 27.8531 21.6552 27.5513C21.3508 27.2064 21.1986 26.7968 21.1986 26.3225V21.5366C21.1986 21.0623 21.3508 20.6742 21.6552 20.3724C22.0031 20.0275 22.4162 19.855 22.8945 19.855H39.3316C39.8099 19.855 40.2012 20.0275 40.5056 20.3724C40.81 20.6742 40.9622 21.0623 40.9622 21.5366V28.9095C40.9622 32.6175 40.1143 35.7865 38.4184 38.4166C36.7225 41.0467 34.3091 43.0732 31.1782 44.496C28.0909 45.8757 24.4817 46.5656 20.3507 46.5656Z" fill="url(#paint5_linear_1_1216)"/>
<path d="M140.87 86.0169C140.535 86.0169 140.261 85.9113 140.048 85.7001C139.835 85.4888 139.729 85.2171 139.729 84.8851V55.0056C139.729 54.6736 139.835 54.402 140.048 54.1907C140.261 53.9794 140.535 53.8738 140.87 53.8738H146.715C147.049 53.8738 147.323 53.9794 147.536 54.1907C147.749 54.402 147.856 54.6736 147.856 55.0056V65.1012C148.678 64.1656 149.682 63.4262 150.869 62.8829C152.087 62.3095 153.487 62.0228 155.07 62.0228C156.836 62.0228 158.403 62.4151 159.773 63.1998C161.173 63.9845 162.269 65.1465 163.06 66.6858C163.852 68.1948 164.247 70.051 164.247 72.2542V84.8851C164.247 85.2171 164.141 85.4888 163.928 85.7001C163.715 85.9113 163.441 86.0169 163.106 86.0169H157.216C156.912 86.0169 156.638 85.9113 156.394 85.7001C156.181 85.4888 156.075 85.2171 156.075 84.8851V72.5259C156.075 71.1073 155.724 70.0208 155.024 69.2663C154.355 68.4816 153.35 68.0892 152.011 68.0892C150.763 68.0892 149.758 68.4816 148.997 69.2663C148.236 70.0208 147.856 71.1073 147.856 72.5259V84.8851C147.856 85.2171 147.749 85.4888 147.536 85.7001C147.323 85.9113 147.049 86.0169 146.715 86.0169H140.87Z" fill="url(#paint6_linear_1_1216)"/>
<path d="M123.71 86.4697C121.457 86.4697 119.464 86.0622 117.729 85.2473C115.993 84.4324 114.609 83.2554 113.574 81.7161C112.569 80.1467 112.021 78.2754 111.93 76.1024C111.899 75.6195 111.884 75.0158 111.884 74.2915C111.884 73.5369 111.899 72.9182 111.93 72.4353C112.021 70.2321 112.569 68.3608 113.574 66.8216C114.578 65.2522 115.948 64.06 117.683 63.2451C119.448 62.4302 121.457 62.0228 123.71 62.0228C125.81 62.0228 127.606 62.3246 129.097 62.9282C130.589 63.5016 131.807 64.226 132.75 65.1012C133.694 65.9765 134.394 66.882 134.85 67.8176C135.337 68.723 135.596 69.5228 135.627 70.217C135.657 70.5188 135.551 70.7904 135.307 71.0319C135.064 71.2432 134.79 71.3488 134.485 71.3488H128.687C128.352 71.3488 128.093 71.2733 127.91 71.1224C127.728 70.9715 127.56 70.7452 127.408 70.4434C127.043 69.5077 126.571 68.8437 125.993 68.4514C125.445 68.059 124.729 67.8628 123.847 67.8628C122.629 67.8628 121.686 68.2552 121.016 69.0399C120.377 69.8246 120.027 71.0319 119.966 72.6617C119.935 73.8689 119.935 74.9404 119.966 75.876C120.027 77.536 120.377 78.7432 121.016 79.4978C121.686 80.2523 122.629 80.6296 123.847 80.6296C124.79 80.6296 125.536 80.4334 126.084 80.041C126.632 79.6487 127.073 78.9847 127.408 78.0491C127.56 77.7473 127.728 77.5209 127.91 77.37C128.093 77.2191 128.352 77.1436 128.687 77.1436H134.485C134.79 77.1436 135.064 77.2643 135.307 77.5058C135.551 77.7171 135.657 77.9736 135.627 78.2754C135.596 78.7885 135.444 79.3921 135.17 80.0863C134.896 80.7503 134.47 81.4596 133.892 82.2141C133.313 82.9686 132.552 83.6779 131.609 84.3419C130.696 84.9757 129.585 85.4888 128.276 85.8811C126.967 86.2735 125.445 86.4697 123.71 86.4697Z" fill="url(#paint7_linear_1_1216)"/>
<path d="M96.6457 86.4697C93.0539 86.4697 90.1926 85.5039 88.0619 83.5723C85.9312 81.6406 84.8201 78.7734 84.7288 74.9706C84.7288 74.7593 84.7288 74.4877 84.7288 74.1557C84.7288 73.8237 84.7288 73.5671 84.7288 73.386C84.8201 71.0017 85.3528 68.9645 86.3269 67.2743C87.3313 65.554 88.7011 64.2562 90.4361 63.3809C92.2016 62.4755 94.2562 62.0228 96.6 62.0228C99.2787 62.0228 101.485 62.5509 103.221 63.6073C104.986 64.6636 106.31 66.0972 107.193 67.9081C108.076 69.719 108.517 71.7864 108.517 74.1104V75.1969C108.517 75.5289 108.395 75.8005 108.152 76.0118C107.939 76.2231 107.68 76.3287 107.375 76.3287H92.7647C92.7647 76.3589 92.7647 76.4042 92.7647 76.4645C92.7647 76.5249 92.7647 76.5853 92.7647 76.6456C92.7951 77.5209 92.9473 78.3207 93.2213 79.045C93.4952 79.7694 93.9214 80.3428 94.4997 80.7654C95.0781 81.1879 95.7782 81.3992 96.6 81.3992C97.2088 81.3992 97.711 81.3087 98.1068 81.1276C98.5329 80.9163 98.8829 80.6899 99.1569 80.4485C99.4308 80.1768 99.6439 79.9505 99.7961 79.7694C100.07 79.4676 100.283 79.2865 100.435 79.2261C100.618 79.1356 100.892 79.0903 101.257 79.0903H106.919C107.223 79.0903 107.467 79.1809 107.649 79.362C107.862 79.5129 107.954 79.7392 107.923 80.041C107.893 80.5541 107.634 81.1728 107.147 81.8972C106.66 82.6215 105.945 83.3459 105.001 84.0703C104.088 84.7644 102.931 85.3379 101.531 85.7906C100.131 86.2433 98.5025 86.4697 96.6457 86.4697ZM92.7647 71.8468H100.481V71.7562C100.481 70.7904 100.329 69.9454 100.024 69.221C99.7505 68.4967 99.3091 67.9383 98.7003 67.5459C98.122 67.1536 97.4219 66.9574 96.6 66.9574C95.7782 66.9574 95.0781 67.1536 94.4997 67.5459C93.9518 67.9383 93.5257 68.4967 93.2213 69.221C92.9169 69.9454 92.7647 70.7904 92.7647 71.7562V71.8468Z" fill="url(#paint8_linear_1_1216)"/>
<path d="M69.6162 86.017C69.2814 86.017 69.0074 85.9113 68.7943 85.7001C68.5813 85.4888 68.4747 85.2172 68.4747 84.8852V61.4342H60.3475C60.0127 61.4342 59.7387 61.3286 59.5257 61.1173C59.3126 60.8759 59.2061 60.6042 59.2061 60.3024V55.4583C59.2061 55.1263 59.3126 54.8547 59.5257 54.6434C59.7387 54.4321 60.0127 54.3265 60.3475 54.3265H84.9118C85.2466 54.3265 85.5206 54.4321 85.7337 54.6434C85.9467 54.8547 86.0533 55.1263 86.0533 55.4583V60.3024C86.0533 60.6042 85.9467 60.8759 85.7337 61.1173C85.5206 61.3286 85.2466 61.4342 84.9118 61.4342H76.7846V84.8852C76.7846 85.2172 76.6781 85.4888 76.465 85.7001C76.2519 85.9113 75.978 86.017 75.6431 86.017H69.6162Z" fill="url(#paint9_linear_1_1216)"/>
<defs>
<linearGradient id="paint0_linear_1_1216" x1="12.0669" y1="7.76093" x2="164.459" y2="88.3761" gradientUnits="userSpaceOnUse">
<stop stop-color="#00E1FF"/>
<stop offset="1" stop-color="#0061FF"/>
</linearGradient>
<linearGradient id="paint1_linear_1_1216" x1="12.0669" y1="7.76093" x2="164.459" y2="88.3761" gradientUnits="userSpaceOnUse">
<stop stop-color="#00E1FF"/>
<stop offset="1" stop-color="#0061FF"/>
</linearGradient>
<linearGradient id="paint2_linear_1_1216" x1="12.0669" y1="7.76093" x2="164.459" y2="88.3761" gradientUnits="userSpaceOnUse">
<stop stop-color="#00E1FF"/>
<stop offset="1" stop-color="#0061FF"/>
</linearGradient>
<linearGradient id="paint3_linear_1_1216" x1="12.0669" y1="7.76093" x2="164.459" y2="88.3761" gradientUnits="userSpaceOnUse">
<stop stop-color="#00E1FF"/>
<stop offset="1" stop-color="#0061FF"/>
</linearGradient>
<linearGradient id="paint4_linear_1_1216" x1="12.0669" y1="7.76093" x2="164.459" y2="88.3761" gradientUnits="userSpaceOnUse">
<stop stop-color="#00E1FF"/>
<stop offset="1" stop-color="#0061FF"/>
</linearGradient>
<linearGradient id="paint5_linear_1_1216" x1="12.0669" y1="7.76093" x2="164.459" y2="88.3761" gradientUnits="userSpaceOnUse">
<stop stop-color="#00E1FF"/>
<stop offset="1" stop-color="#0061FF"/>
</linearGradient>
<linearGradient id="paint6_linear_1_1216" x1="12.0669" y1="7.76093" x2="164.459" y2="88.3761" gradientUnits="userSpaceOnUse">
<stop stop-color="#00E1FF"/>
<stop offset="1" stop-color="#0061FF"/>
</linearGradient>
<linearGradient id="paint7_linear_1_1216" x1="12.0669" y1="7.76093" x2="164.459" y2="88.3761" gradientUnits="userSpaceOnUse">
<stop stop-color="#00E1FF"/>
<stop offset="1" stop-color="#0061FF"/>
</linearGradient>
<linearGradient id="paint8_linear_1_1216" x1="12.0669" y1="7.76093" x2="164.459" y2="88.3761" gradientUnits="userSpaceOnUse">
<stop stop-color="#00E1FF"/>
<stop offset="1" stop-color="#0061FF"/>
</linearGradient>
<linearGradient id="paint9_linear_1_1216" x1="12.0669" y1="7.76093" x2="164.459" y2="88.3761" gradientUnits="userSpaceOnUse">
<stop stop-color="#00E1FF"/>
<stop offset="1" stop-color="#0061FF"/>
</linearGradient>
</defs>
</svg>
